<?xml version="1.0" encoding="utf-8"?>
<!-- Generator: Adobe Illustrator 22.0.1, SVG Export Plug-In . SVG Version: 6.00 Build 0)  -->
<svg version="1.1" id="Layer_1" xmlns="http://www.w3.org/2000/svg" xmlns:xlink="http://www.w3.org/1999/xlink" x="0px" y="0px"
	 viewBox="0 0 142.3 29.6" style="enable-background:new 0 0 142.3 29.6;" xml:space="preserve">
<style type="text/css">
	.st0{fill:#FFFFFF;}
</style>
<g>
	<g>
		<path class="st0" d="M12.6,10C12.6,10,12.6,10.1,12.6,10l-2.1,8.2c0,0.1,0,0.1,0,0.1s0.1,0,0.1,0h3.8c0,0,0.1,0,0.1,0
			c0,0,0-0.1,0-0.1L12.6,10C12.7,10,12.7,10,12.6,10z"/>
		<path class="st0" d="M29.1,8.2h-2.5c-0.1,0-0.1,0-0.1,0.1v4.9c0,0.1,0,0.1,0.1,0.1h2.5c0.7,0,1.3-0.2,1.7-0.7s0.7-1.1,0.7-1.8
			c0-0.8-0.2-1.4-0.7-1.9C30.4,8.4,29.8,8.2,29.1,8.2z"/>
		<path class="st0" d="M0,0v29.6h87.3V0H0z M19.9,24.7h-3.5c-0.2,0-0.3-0.1-0.4-0.3l-0.7-2.8c0-0.1-0.1-0.1-0.1-0.1H9.9
			c-0.1,0-0.1,0-0.1,0.1l-0.7,2.8c-0.1,0.2-0.2,0.3-0.4,0.3H5.3c-0.2,0-0.3-0.1-0.3-0.4L10.1,5c0.1-0.2,0.2-0.3,0.4-0.3h4.1
			C14.9,4.7,15,4.8,15,5l5.2,19.3l0,0.1C20.2,24.6,20.1,24.7,19.9,24.7z M35.3,24.7h-3.5c-0.2,0-0.3-0.1-0.4-0.3l-2.9-7.9
			c0-0.1-0.1-0.1-0.1-0.1h-1.8c-0.1,0-0.1,0-0.1,0.1v7.8c0,0.1,0,0.2-0.1,0.2c-0.1,0.1-0.1,0.1-0.2,0.1h-3.3c-0.1,0-0.2,0-0.2-0.1
			c-0.1-0.1-0.1-0.1-0.1-0.2V5c0-0.1,0-0.2,0.1-0.2c0.1-0.1,0.1-0.1,0.2-0.1h7c1.1,0,2.1,0.3,3,0.8c0.9,0.5,1.6,1.2,2,2.1
			c0.5,0.9,0.7,2,0.7,3.1c0,1.2-0.3,2.3-0.8,3.2c-0.5,0.9-1.3,1.6-2.3,2c-0.1,0-0.1,0.1-0.1,0.2l3.3,8.2c0,0,0,0.1,0,0.1
			C35.7,24.6,35.6,24.7,35.3,24.7z M50.7,11.1c0,0.1,0,0.2-0.1,0.2c-0.1,0.1-0.1,0.1-0.2,0.1H47c-0.1,0-0.2,0-0.2-0.1
			c-0.1-0.1-0.1-0.1-0.1-0.2v-0.6c0-0.7-0.2-1.3-0.7-1.8c-0.5-0.5-1.1-0.7-1.8-0.7c-0.8,0-1.4,0.2-1.8,0.7c-0.5,0.5-0.7,1.1-0.7,1.9
			v8.2c0,0.8,0.2,1.4,0.7,1.9c0.5,0.5,1.1,0.7,1.9,0.7c0.7,0,1.3-0.2,1.8-0.7c0.4-0.4,0.7-1,0.7-1.8v-1.8c0-0.1,0-0.1-0.1-0.1h-2.2
			c-0.1,0-0.2,0-0.2-0.1C44,16.9,44,16.9,44,16.8v-2.6c0-0.1,0-0.2,0.1-0.2c0.1-0.1,0.1-0.1,0.2-0.1h6c0.1,0,0.2,0,0.2,0.1
			c0.1,0.1,0.1,0.1,0.1,0.2v4.5c0,1.9-0.6,3.4-1.8,4.5c-1.2,1.1-2.8,1.7-4.8,1.7c-1.3,0-2.4-0.3-3.4-0.8c-1-0.5-1.8-1.2-2.3-2.2
			c-0.5-0.9-0.8-2-0.8-3.3v-8c0-1.2,0.3-2.3,0.8-3.3c0.5-0.9,1.3-1.7,2.3-2.2c1-0.5,2.1-0.8,3.4-0.8c1.3,0,2.4,0.3,3.4,0.8
			c1,0.5,1.8,1.2,2.3,2.1c0.5,0.9,0.8,1.9,0.8,3.1V11.1z M66.2,18.6c0,1.3-0.3,2.4-0.8,3.3c-0.5,1-1.3,1.7-2.3,2.2
			c-1,0.5-2.1,0.8-3.4,0.8c-1.3,0-2.4-0.3-3.4-0.8c-1-0.5-1.8-1.3-2.3-2.2c-0.5-1-0.8-2.1-0.8-3.3V5.1c0-0.1,0-0.2,0.1-0.2
			c0.1-0.1,0.1-0.1,0.2-0.1h3.3c0.1,0,0.2,0,0.2,0.1s0.1,0.1,0.1,0.2v13.7c0,0.8,0.2,1.5,0.7,2c0.5,0.5,1.1,0.7,1.8,0.7
			c0.8,0,1.4-0.2,1.8-0.7s0.7-1.2,0.7-2V5.1c0-0.1,0-0.2,0.1-0.2s0.1-0.1,0.2-0.1h3.3c0.1,0,0.2,0,0.2,0.1s0.1,0.1,0.1,0.2V18.6z
			 M81.2,7.8c0,0.1,0,0.2-0.1,0.2c-0.1,0.1-0.1,0.1-0.2,0.1h-7.7c-0.1,0-0.1,0-0.1,0.1v4.5c0,0.1,0,0.1,0.1,0.1h4.8
			c0.1,0,0.2,0,0.2,0.1c0.1,0.1,0.1,0.1,0.1,0.2V16c0,0.1,0,0.2-0.1,0.2c-0.1,0.1-0.1,0.1-0.2,0.1h-4.8c-0.1,0-0.1,0-0.1,0.1v4.6
			c0,0.1,0,0.1,0.1,0.1h7.7c0.1,0,0.2,0,0.2,0.1c0.1,0.1,0.1,0.1,0.1,0.2v2.8c0,0.1,0,0.2-0.1,0.2c-0.1,0.1-0.1,0.1-0.2,0.1H69.3
			c-0.1,0-0.2,0-0.2-0.1S69,24.5,69,24.4V5.1c0-0.1,0-0.2,0.1-0.2s0.1-0.1,0.2-0.1h11.5c0.1,0,0.2,0,0.2,0.1
			c0.1,0.1,0.1,0.1,0.1,0.2V7.8z"/>
	</g>
	<g>
		<path class="st0" d="M95.3,24.2c-1-0.5-1.7-1.1-2.3-2c-0.5-0.8-0.8-1.8-0.8-2.9v-0.8c0-0.1,0-0.2,0.1-0.2c0.1-0.1,0.1-0.1,0.2-0.1
			h3.3c0.1,0,0.2,0,0.2,0.1c0.1,0.1,0.1,0.1,0.1,0.2v0.6c0,0.7,0.2,1.2,0.7,1.7s1.1,0.7,1.9,0.7c0.7,0,1.3-0.2,1.7-0.6
			c0.4-0.4,0.6-0.9,0.6-1.5c0-0.4-0.1-0.8-0.4-1.1c-0.2-0.3-0.6-0.6-1-0.9c-0.4-0.3-1.1-0.7-2.1-1.1c-1.1-0.6-2.1-1.1-2.8-1.6
			s-1.3-1.1-1.9-1.9c-0.5-0.8-0.8-1.7-0.8-2.8c0-1.7,0.6-3,1.7-4c1.1-1,2.6-1.5,4.5-1.5c1.3,0,2.4,0.2,3.4,0.7c1,0.5,1.8,1.2,2.3,2
			c0.6,0.9,0.8,1.9,0.8,3v0.6c0,0.1,0,0.2-0.1,0.2s-0.1,0.1-0.2,0.1h-3.3c-0.1,0-0.2,0-0.2-0.1s-0.1-0.1-0.1-0.2v-0.5
			c0-0.7-0.2-1.3-0.7-1.7c-0.5-0.5-1.1-0.7-1.9-0.7c-0.7,0-1.2,0.2-1.6,0.5c-0.4,0.4-0.6,0.8-0.6,1.5c0,0.4,0.1,0.8,0.3,1.1
			c0.2,0.3,0.6,0.6,1.1,0.9s1.2,0.7,2.1,1.2l0.6,0.3c1.1,0.6,2,1.2,2.6,1.6c0.6,0.4,1.1,1,1.6,1.7s0.6,1.5,0.6,2.5
			c0,1.7-0.6,3.1-1.8,4.1c-1.2,1-2.7,1.5-4.7,1.5C97.4,24.9,96.2,24.7,95.3,24.2z"/>
		<path class="st0" d="M107.6,24.6c-0.1-0.1-0.1-0.1-0.1-0.2V5.1c0-0.1,0-0.2,0.1-0.2s0.1-0.1,0.2-0.1h3.3c0.1,0,0.2,0,0.2,0.1
			s0.1,0.1,0.1,0.2v19.3c0,0.1,0,0.2-0.1,0.2s-0.1,0.1-0.2,0.1h-3.3C107.8,24.7,107.7,24.7,107.6,24.6z"/>
		<path class="st0" d="M114.6,24.6c-0.1-0.1-0.1-0.1-0.1-0.2V5.1c0-0.1,0-0.2,0.1-0.2s0.1-0.1,0.2-0.1h6.1c1.3,0,2.4,0.2,3.4,0.7
			s1.7,1.2,2.3,2s0.8,1.9,0.8,3.1v8.4c0,1.2-0.3,2.2-0.8,3.1s-1.3,1.6-2.3,2s-2.1,0.7-3.4,0.7h-6.1
			C114.8,24.7,114.7,24.7,114.6,24.6z M118.7,21.2l2.3,0c0.7,0,1.3-0.3,1.7-0.8c0.4-0.5,0.7-1.2,0.7-2V11c0-0.9-0.2-1.5-0.7-2
			c-0.4-0.5-1-0.8-1.7-0.8h-2.3c-0.1,0-0.1,0-0.1,0.1v12.8C118.6,21.2,118.6,21.2,118.7,21.2z"/>
		<path class="st0" d="M142.2,8.1c-0.1,0.1-0.1,0.1-0.2,0.1h-7.7c-0.1,0-0.1,0-0.1,0.1v4.5c0,0.1,0,0.1,0.1,0.1h4.8
			c0.1,0,0.2,0,0.2,0.1c0.1,0.1,0.1,0.1,0.1,0.2V16c0,0.1,0,0.2-0.1,0.2c-0.1,0.1-0.1,0.1-0.2,0.1h-4.8c-0.1,0-0.1,0-0.1,0.1v4.6
			c0,0.1,0,0.1,0.1,0.1h7.7c0.1,0,0.2,0,0.2,0.1c0.1,0.1,0.1,0.1,0.1,0.2v2.8c0,0.1,0,0.2-0.1,0.2c-0.1,0.1-0.1,0.1-0.2,0.1h-11.5
			c-0.1,0-0.2,0-0.2-0.1s-0.1-0.1-0.1-0.2V5.1c0-0.1,0-0.2,0.1-0.2s0.1-0.1,0.2-0.1H142c0.1,0,0.2,0,0.2,0.1
			c0.1,0.1,0.1,0.1,0.1,0.2v2.8C142.3,7.9,142.3,8,142.2,8.1z"/>
	</g>
</g>
</svg>
